<?xml version="1.0" encoding="utf-8"?>
<!-- Generator: Adobe Illustrator 18.1.1, SVG Export Plug-In . SVG Version: 6.00 Build 0)  -->
<svg version="1.1" xmlns="http://www.w3.org/2000/svg" xmlns:xlink="http://www.w3.org/1999/xlink" x="0px" y="0px"
	 viewBox="0 0 187.6 190" enable-background="new 0 0 187.6 190" xml:space="preserve">
<g id="Laag_3">
</g>
<g id="Layer_2">
	
		<path fill="#FEC262" stroke="#996C31" stroke-width="6" stroke-linecap="round" stroke-linejoin="round" stroke-miterlimit="10" d="
		M159.1,143.7L32.9,153.9V84.7c0,0,10.5-25.5,38.8-35.5l87.5,38.5V143.7z"/>
	
		<line fill="none" stroke="#996C31" stroke-width="6" stroke-linecap="round" stroke-linejoin="round" stroke-miterlimit="10" x1="32.9" y1="84.7" x2="159.1" y2="87.7"/>
	<g>
		<path fill="#FECF9F" d="M71.4,115.4c-4.5,0-8.3-3.7-8.3-8.3s3.7-8.3,8.3-8.3s8.3,3.7,8.3,8.3S75.9,115.4,71.4,115.4z"/>
		<path fill="#996C31" d="M71.4,101.9c2.9,0,5.3,2.4,5.3,5.3s-2.4,5.3-5.3,5.3s-5.3-2.4-5.3-5.3S68.5,101.9,71.4,101.9 M71.4,95.9
			c-6.2,0-11.3,5-11.3,11.3s5,11.3,11.3,11.3s11.3-5,11.3-11.3S77.6,95.9,71.4,95.9L71.4,95.9z"/>
	</g>
	<circle fill="#FECF9F" stroke="#996C31" stroke-width="6" stroke-miterlimit="10" cx="106" cy="101.6" r="6.9"/>
	<circle fill="#FECF9F" stroke="#996C31" stroke-width="6" stroke-miterlimit="10" cx="54.6" cy="134.9" r="6.8"/>
	<circle fill="#FECF9F" stroke="#996C31" stroke-width="6" stroke-miterlimit="10" cx="107" cy="134.8" r="11.4"/>
	<circle fill="#FECF9F" stroke="#996C31" stroke-width="6" stroke-miterlimit="10" cx="135.6" cy="124.7" r="6.5"/>
	<ellipse fill="#FECF9F" stroke="#996C31" stroke-width="6" stroke-miterlimit="10" cx="74.6" cy="66.2" rx="9.9" ry="6"/>
</g>
</svg>
