<?xml version="1.0" encoding="utf-8"?>
<!-- Generator: Adobe Illustrator 18.1.1, SVG Export Plug-In . SVG Version: 6.00 Build 0)  -->
<svg version="1.1" xmlns="http://www.w3.org/2000/svg" xmlns:xlink="http://www.w3.org/1999/xlink" x="0px" y="0px"
	 viewBox="0 0 187.6 190" enable-background="new 0 0 187.6 190" xml:space="preserve">
<g id="Laag_3">
</g>
<g id="Layer_2">
	<path id="L_oor_1_" fill="none" stroke="#FFFFFF" stroke-width="6" stroke-miterlimit="10" d="M47.8,74.6
		C15.5,59.1,34,26.6,34,26.6s7.4,8,13.8,9.4c6.4,1.4,12.9,9.4,11.7,15.3"/>
	<path fill="none" stroke="#FFFFFF" stroke-width="6" stroke-miterlimit="10" d="M132.4,74.6c32.2-15.5,13.8-48.1,13.8-48.1
		s-7.4,8-13.8,9.4c-6.4,1.4-12.9,9.4-11.7,15.3"/>
	<path fill="none" stroke="#FFFFFF" stroke-width="6" stroke-miterlimit="10" d="M154.8,120.3c0-12-8.5-25.5-22-35.3
		c0.1-1.2,0.2-2.4,0.2-3.7c0-23.7-19.2-42.9-42.9-42.9S47.2,57.6,47.2,81.3c0,1.2,0.1,2.5,0.2,3.7c-13.5,9.8-22,23.3-22,35.3
		c0,15.2,13.6,29.5,33.6,37c7.8,8.2,18.8,13.4,31.1,13.4s23.3-5.1,31.1-13.4C141.2,149.7,154.8,135.4,154.8,120.3z"/>
	<ellipse fill="none" stroke="#FFFFFF" stroke-width="6" stroke-miterlimit="10" cx="90.1" cy="127.3" rx="32.7" ry="23.4"/>
	<g>
		<circle fill="#FFFFFF" cx="74.7" cy="89" r="6.3"/>
		<circle fill="#FFFFFF" cx="105.5" cy="89" r="6.3"/>
	</g>
	<g>
		<ellipse fill="#FFFFFF" cx="80.2" cy="123.8" rx="4.3" ry="7.7"/>
		<ellipse fill="#FFFFFF" cx="100" cy="123.8" rx="4.3" ry="7.7"/>
	</g>
</g>
</svg>
