<?xml version="1.0" encoding="utf-8"?>
<!-- Generator: Adobe Illustrator 18.1.1, SVG Export Plug-In . SVG Version: 6.00 Build 0)  -->
<svg version="1.1" xmlns="http://www.w3.org/2000/svg" xmlns:xlink="http://www.w3.org/1999/xlink" x="0px" y="0px"
	 viewBox="0 0 733.5 190.5" enable-background="new 0 0 733.5 190.5" xml:space="preserve">
<g id="Laag_3">
</g>
<g id="Layer_2">
	<g>
		<g>
			
				<polygon fill="none" stroke="#FFFFFF" stroke-width="6" stroke-linecap="round" stroke-linejoin="round" stroke-miterlimit="10" points="
				115.6,30.6 188.6,32.3 259.2,37.1 329.9,29 400.5,31.1 471.2,27.9 541.8,31.1 609.3,35.1 616,119.5 542.2,119.8 471.5,122.4 
				400.8,116.4 330.1,119.6 259.4,121.2 188.7,115.4 120.4,117 			"/>
		</g>
		<g>
			
				<polyline fill="none" stroke="#FFFFFF" stroke-width="6" stroke-linecap="round" stroke-linejoin="round" stroke-miterlimit="10" points="
				200.6,119 200.4,154.4 116.4,156.2 32.3,154.6 62.5,110 32.8,67.4 117.9,66.2 			"/>
		</g>
		<g>
			
				<line fill="none" stroke="#FFFFFF" stroke-width="6" stroke-linecap="round" stroke-linejoin="round" stroke-miterlimit="10" x1="120.2" y1="117.4" x2="200.4" y2="154.6"/>
		</g>
		<g>
			
				<polyline fill="none" stroke="#FFFFFF" stroke-width="6" stroke-linecap="round" stroke-linejoin="round" stroke-miterlimit="10" points="
				531.8,122.5 530.3,154.9 614.4,156.1 699.4,155.6 667.5,110 697.6,68.1 612.9,66.7 			"/>
		</g>
		<g>
			
				<line fill="none" stroke="#FFFFFF" stroke-width="6" stroke-linecap="round" stroke-linejoin="round" stroke-miterlimit="10" x1="612.9" y1="118.9" x2="530.7" y2="155.1"/>
		</g>
	</g>
</g>
</svg>
