<?xml version="1.0" encoding="utf-8"?>
<!-- Generator: Adobe Illustrator 18.1.1, SVG Export Plug-In . SVG Version: 6.00 Build 0)  -->
<svg version="1.1" xmlns="http://www.w3.org/2000/svg" xmlns:xlink="http://www.w3.org/1999/xlink" x="0px" y="0px"
	 viewBox="0 0 187.6 190" enable-background="new 0 0 187.6 190" xml:space="preserve">
<g id="Laag_3">
</g>
<g id="Layer_2">
	<path fill="none" stroke="#FFFFFF" stroke-width="6" stroke-linecap="round" stroke-miterlimit="10" d="M87.8,125.2
		c0,0,8.7-38,54.7-33"/>
	<path fill="none" stroke="#FFFFFF" stroke-width="6" stroke-linecap="round" stroke-miterlimit="10" d="M114.6,94.8
		c-7.1-2.6-15.9-3.8-26.8-2.6"/>
	<path fill="none" stroke="#FFFFFF" stroke-width="6" stroke-linecap="round" stroke-miterlimit="10" d="M142.5,125.2
		c0,0-2.8-12.4-13.9-22.1"/>
	<path fill="none" stroke="#FFFFFF" stroke-width="6" stroke-linecap="round" stroke-linejoin="round" stroke-miterlimit="10" d="
		M42.8,85.2c0,0,8.7-38,54.7-33"/>
	<path fill="none" stroke="#FFFFFF" stroke-width="6" stroke-linecap="round" stroke-miterlimit="10" d="M69.6,54.8
		c-7.1-2.6-15.9-3.8-26.8-2.6"/>
	<path fill="none" stroke="#FFFFFF" stroke-width="6" stroke-linecap="round" stroke-miterlimit="10" d="M94.7,78
		c-2.1-4.4-5.6-10-11.2-14.9"/>
	<path fill="none" stroke="#FFFFFF" stroke-width="6" stroke-miterlimit="10" d="M170,129.7c0,25.1-24.8,35.5-55.4,35.5
		s-55.4-10.4-55.4-35.5s21.9-55.5,55.4-55.5C150.8,74.2,170,104.5,170,129.7z"/>
	<path fill="none" stroke="#FFFFFF" stroke-width="6" stroke-miterlimit="10" d="M58,124.7c-25-2.4-43.8-13.1-43.8-35
		c0-25.1,21.9-55.5,55.4-55.5c28.5,0,46.4,18.8,52.8,39.1"/>
</g>
</svg>
