<?xml version="1.0" encoding="utf-8"?>
<!-- Generator: Adobe Illustrator 18.1.1, SVG Export Plug-In . SVG Version: 6.00 Build 0)  -->
<svg version="1.1" xmlns="http://www.w3.org/2000/svg" xmlns:xlink="http://www.w3.org/1999/xlink" x="0px" y="0px"
	 viewBox="0 0 187.6 190" enable-background="new 0 0 187.6 190" xml:space="preserve">
<g id="Laag_3">
	<path fill="#7BC252" d="M45.5,112.7c0,0-8.6-6.2-7.1-11.7c1.5-5.5-0.2-15.3-0.2-15.3v-5.4c0,0,9.2-6,8.9-16.3s16.3-8.1,16.3-8.1
		l11.1,0.9l1.9-2.4c0,0,3.6-17.5,9.5-16.1s7.3,10.7,12.8,10.4s23.5-16.1,28.5-14.9c5,1.2,10,3.1,9.5,7.4s-7.2,18.4-6.7,18.9
		s13.4,4.4,13.3,7.9c0,3.5,0,8.4,0,8.4s7.9,6.8,8.1,7.1s10.8,4.4,10.8,4.4l-7,23.1L45.5,112.7z"/>
</g>
<g id="Layer_2">
	<path fill="none" stroke="#477637" stroke-width="6" stroke-linecap="round" stroke-linejoin="round" stroke-miterlimit="10" d="
		M46,111.5c-5.3-1.5-8.8-7.7-7.3-13.1c0.8-2.8,2.7-5.4,2.1-8.2c-0.6-3-4.1-5.1-3.9-8.2c0.1-1.8,1.5-3.2,3-4.3s3.1-1.9,4.3-3.2
		c2.9-3.5,1.4-8.9,2.8-13.3c0.9-2.8,3.1-5.2,5.8-6.3c2.7-1.1,5.9-0.9,8.5,0.5c1.8,1,3.5,2.5,5.5,2.5c1.1,0,2.1-0.6,3.2-0.9
		c3-1,6.5-0.5,9.1,1.4s4.3,4.9,4.4,8.1c0.1,1.9-0.3,3.9,0.8,5.4c0.7,0.9,1.9,1.3,3,1.9c4.4,2.4,6,8.7,3.3,13
		c-1.1,1.7-2.8,3.3-2.9,5.3c-0.1,1.8,1.2,3.4,2.6,4.4s3.2,1.6,4.7,2.5c4.6,2.8,7,6.4,5.8,11.7"/>
	<path fill="none" stroke="#477637" stroke-width="6" stroke-linecap="round" stroke-linejoin="round" stroke-miterlimit="10" d="
		M76.4,55.3c0-4.5,1.2-9,3.3-13c0.9-1.7,2.2-3.4,4-3.8c2.2-0.4,4.3,1.2,5.8,2.9c1.4,1.6,2.6,3.4,4.1,4.8c1.6,1.4,3.6,2.5,5.7,2.2
		c1.9-0.2,3.5-1.5,5-2.6c7.1-5.4,15.1-10.3,24-11.1c2.6-0.2,5.5,0,7.1,2.1c1.3,1.6,1.2,3.9,0.9,6c-0.8,5.7-2.8,11.3-6,16.2
		c-0.7,1.1-1.5,2.5-0.8,3.6c0.4,0.7,1.3,1,2.1,1.2c1.9,0.5,3.8,1,5.7,1.5c1.9,0.5,3.9,1.1,5,2.7c1.1,1.6,1,3.7,0.2,5.4
		c-0.8,1.7-2.1,2.1-3.4,3.5"/>
	<path fill="none" stroke="#477637" stroke-width="6" stroke-linecap="round" stroke-linejoin="round" stroke-miterlimit="10" d="
		M96.3,99.9c-1-4.2,3-5.4,3.6-8.3c0.6-2.9,2.7-5.4,5.4-6.4c2.8-1,6-0.4,8.7,0.9c2.7,1.3,5.1,3.2,7.6,4.8c1.2,0.8,2.8,1.6,4.1,0.8
		c1-0.6,1.3-1.9,1.7-3c1.5-4.9,5-9.3,9.8-10.9c4.8-1.6,10.8,0,13.4,4.4c0.8,1.4,1.6,3.1,3.2,3.3c0.9,0.1,1.8-0.4,2.7-0.6
		c2.2-0.4,4.5,1.4,5.2,3.5s0.3,4.6-0.3,6.8c-1.7,6-4.9,11.5-9.2,15.9"/>
	<path fill="none" stroke="#477637" stroke-width="6" stroke-linecap="round" stroke-linejoin="round" stroke-miterlimit="10" d="
		M119.3,47.2c-0.7,3.2-3.4,5.6-6.1,7.4c-2.7,1.8-5.7,3.4-7.8,6c-2.5,3.2-3.1,7.5-2.6,11.6s2.1,7.8,3.7,11.6"/>
	<path fill="none" stroke="#477637" stroke-width="6" stroke-linecap="round" stroke-linejoin="round" stroke-miterlimit="10" d="
		M121.5,71.4c-5.9-0.4-11.8,1.1-16.8,4.2"/>
	<path fill="none" stroke="#477637" stroke-width="6" stroke-linecap="round" stroke-linejoin="round" stroke-miterlimit="10" d="
		M90.1,59.4c3.7,2.3,7.7,4.3,11.8,5.7"/>
	<path fill="none" stroke="#477637" stroke-width="6" stroke-linecap="round" stroke-linejoin="round" stroke-miterlimit="10" d="
		M57.9,67.9c-1.1,6.8,0.5,13.9,4.5,19.5c2.2,3,5,5.7,6.4,9.1c1.9,4.6,1,9.8,0.1,14.7"/>
	<path fill="none" stroke="#477637" stroke-width="6" stroke-linecap="round" stroke-linejoin="round" stroke-miterlimit="10" d="
		M74.3,74.6c1.2,6.8-2.2,14.2-8.1,17.7"/>
	<path fill="none" stroke="#477637" stroke-width="6" stroke-linecap="round" stroke-linejoin="round" stroke-miterlimit="10" d="
		M49.7,87.8c3.8,3,9.3,3.7,13.8,1.8"/>
	<path fill="none" stroke="#477637" stroke-width="6" stroke-linecap="round" stroke-linejoin="round" stroke-miterlimit="10" d="
		M136.3,91.6c-4.6,5-7,11.9-6.6,18.6"/>
	
		<path fill="#CEBE9B" stroke="#675B49" stroke-width="6" stroke-linecap="round" stroke-linejoin="round" stroke-miterlimit="10" d="
		M167.2,111.5c-6.5,32-34.8,56-68.7,56c-33.4,0-61.4-23.4-68.4-54.7L167.2,111.5z"/>
	<path fill="none" stroke="#477637" stroke-width="6" stroke-linecap="round" stroke-linejoin="round" stroke-miterlimit="10" d="
		M140.6,99.7c-2.6,1.7-5.6,2.9-8.8,3.4"/>
</g>
</svg>
